ply
format ascii 1.0
comment Created by Blender 2.80 (sub 75) - www.blender.org, source file: ''
element vertex 65
property float x
property float y
property float z
property float nx
property float ny
property float nz
property float s
property float t
element face 62
property list uchar uint vertex_indices
end_header
0.000000 1.000000 -0.160266 0.000000 0.864101 -0.503281 0.250000 0.490000
0.000000 0.000000 1.839734 0.000000 0.000000 1.000000 0.250000 0.250000
0.195090 0.980785 -0.160266 0.168554 0.847499 -0.503281 0.296822 0.485388
0.382683 0.923880 -0.160266 0.330668 0.798334 -0.503281 0.341844 0.471731
0.555570 0.831470 -0.160266 0.480056 0.718467 -0.503281 0.383337 0.449553
0.707107 0.707107 -0.160266 0.611011 0.611011 -0.503281 0.419706 0.419706
0.831470 0.555570 -0.160266 0.718467 0.480056 -0.503281 0.449553 0.383337
0.923880 0.382683 -0.160266 0.798334 0.330668 -0.503281 0.471731 0.341844
0.980785 0.195090 -0.160266 0.847499 0.168554 -0.503281 0.485388 0.296822
1.000000 0.000000 -0.160266 0.864101 0.000000 -0.503281 0.490000 0.250000
0.980785 -0.195090 -0.160266 0.847499 -0.168554 -0.503281 0.485388 0.203178
0.923880 -0.382683 -0.160266 0.798334 -0.330668 -0.503281 0.471731 0.158156
0.831470 -0.555570 -0.160266 0.718467 -0.480056 -0.503281 0.449553 0.116663
0.707107 -0.707107 -0.160266 0.611011 -0.611011 -0.503281 0.419706 0.080294
0.555570 -0.831470 -0.160266 0.480056 -0.718467 -0.503281 0.383337 0.050447
0.382683 -0.923880 -0.160266 0.330668 -0.798334 -0.503281 0.341844 0.028269
0.195090 -0.980785 -0.160266 0.168554 -0.847499 -0.503281 0.296822 0.014612
-0.000000 -1.000000 -0.160266 0.000000 -0.864101 -0.503281 0.250000 0.010000
-0.195091 -0.980785 -0.160266 -0.168554 -0.847499 -0.503281 0.203178 0.014612
-0.382684 -0.923879 -0.160266 -0.330668 -0.798334 -0.503281 0.158156 0.028269
-0.555571 -0.831469 -0.160266 -0.480056 -0.718467 -0.503281 0.116663 0.050447
-0.707107 -0.707106 -0.160266 -0.611011 -0.611011 -0.503281 0.080294 0.080294
-0.831470 -0.555570 -0.160266 -0.718467 -0.480056 -0.503281 0.050447 0.116663
-0.923880 -0.382683 -0.160266 -0.798334 -0.330668 -0.503281 0.028269 0.158156
-0.980785 -0.195089 -0.160266 -0.847499 -0.168554 -0.503281 0.014611 0.203179
-1.000000 0.000001 -0.160266 -0.864101 0.000000 -0.503281 0.010000 0.250000
-0.980785 0.195091 -0.160266 -0.847499 0.168554 -0.503281 0.014612 0.296822
-0.923879 0.382684 -0.160266 -0.798334 0.330668 -0.503281 0.028269 0.341844
-0.831469 0.555571 -0.160266 -0.718467 0.480056 -0.503281 0.050447 0.383337
-0.707106 0.707108 -0.160266 -0.611011 0.611011 -0.503281 0.080295 0.419706
-0.555569 0.831470 -0.160266 -0.480056 0.718467 -0.503281 0.116663 0.449553
-0.382682 0.923880 -0.160266 -0.330668 0.798334 -0.503281 0.158156 0.471731
-0.195089 0.980786 -0.160266 -0.168554 0.847499 -0.503281 0.203179 0.485389
-0.195089 0.980786 -0.160266 -0.000000 0.000000 -1.000000 0.703179 0.485389
0.000000 1.000000 -0.160266 -0.000000 0.000000 -1.000000 0.750000 0.490000
0.195090 0.980785 -0.160266 -0.000000 0.000000 -1.000000 0.796822 0.485388
0.382683 0.923880 -0.160266 0.000000 0.000000 -1.000000 0.841844 0.471731
0.555570 0.831470 -0.160266 0.000000 0.000000 -1.000000 0.883337 0.449553
0.707107 0.707107 -0.160266 0.000000 0.000000 -1.000000 0.919706 0.419706
0.831470 0.555570 -0.160266 0.000000 0.000000 -1.000000 0.949553 0.383337
0.923880 0.382683 -0.160266 0.000000 0.000000 -1.000000 0.971731 0.341844
0.980785 0.195090 -0.160266 0.000000 0.000000 -1.000000 0.985388 0.296822
1.000000 0.000000 -0.160266 0.000000 0.000000 -1.000000 0.990000 0.250000
0.980785 -0.195090 -0.160266 0.000000 0.000000 -1.000000 0.985388 0.203178
0.923880 -0.382683 -0.160266 0.000000 0.000000 -1.000000 0.971731 0.158156
0.831470 -0.555570 -0.160266 0.000000 0.000000 -1.000000 0.949553 0.116663
0.707107 -0.707107 -0.160266 0.000000 0.000000 -1.000000 0.919706 0.080294
0.555570 -0.831470 -0.160266 0.000000 0.000000 -1.000000 0.883337 0.050447
0.382683 -0.923880 -0.160266 0.000000 0.000000 -1.000000 0.841844 0.028269
0.195090 -0.980785 -0.160266 0.000000 0.000000 -1.000000 0.796822 0.014612
-0.000000 -1.000000 -0.160266 0.000000 0.000000 -1.000000 0.750000 0.010000
-0.195091 -0.980785 -0.160266 0.000000 0.000000 -1.000000 0.703178 0.014612
-0.382684 -0.923879 -0.160266 0.000000 0.000000 -1.000000 0.658156 0.028269
-0.555571 -0.831469 -0.160266 0.000000 0.000000 -1.000000 0.616663 0.050447
-0.707107 -0.707106 -0.160266 0.000000 0.000000 -1.000000 0.580294 0.080294
-0.831470 -0.555570 -0.160266 0.000000 0.000000 -1.000000 0.550447 0.116663
-0.923880 -0.382683 -0.160266 0.000000 0.000000 -1.000000 0.528269 0.158156
-0.980785 -0.195089 -0.160266 0.000000 0.000000 -1.000000 0.514611 0.203179
-1.000000 0.000001 -0.160266 0.000000 -0.000000 -1.000000 0.510000 0.250000
-0.980785 0.195091 -0.160266 0.000000 -0.000000 -1.000000 0.514612 0.296822
-0.923879 0.382684 -0.160266 0.000000 0.000000 -1.000000 0.528269 0.341844
-0.831469 0.555571 -0.160266 0.000000 0.000000 -1.000000 0.550447 0.383337
-0.707106 0.707108 -0.160266 0.000000 0.000000 -1.000000 0.580295 0.419706
-0.555569 0.831470 -0.160266 0.000000 0.000000 -1.000000 0.616663 0.449553
-0.382682 0.923880 -0.160266 0.000000 0.000000 -1.000000 0.658156 0.471731
3 0 1 2
3 2 1 3
3 3 1 4
3 4 1 5
3 5 1 6
3 6 1 7
3 7 1 8
3 8 1 9
3 9 1 10
3 10 1 11
3 11 1 12
3 12 1 13
3 13 1 14
3 14 1 15
3 15 1 16
3 16 1 17
3 17 1 18
3 18 1 19
3 19 1 20
3 20 1 21
3 21 1 22
3 22 1 23
3 23 1 24
3 24 1 25
3 25 1 26
3 26 1 27
3 27 1 28
3 28 1 29
3 29 1 30
3 30 1 31
3 31 1 32
3 32 1 0
3 33 34 35
3 35 36 37
3 37 38 39
3 39 40 41
3 41 42 43
3 43 44 45
3 45 46 47
3 47 48 49
3 49 50 51
3 51 52 53
3 53 54 55
3 55 56 57
3 57 58 59
3 59 60 61
3 61 62 63
3 63 64 33
3 33 35 37
3 37 39 41
3 41 43 45
3 45 47 49
3 49 51 53
3 53 55 57
3 57 59 61
3 61 63 33
3 33 37 41
3 41 45 49
3 49 53 57
3 57 61 33
3 33 41 49
3 49 57 33
