ply
format ascii 1.0
comment Created by Blender 2.80 (sub 75) - www.blender.org, source file: ''
element vertex 192
property float x
property float y
property float z
property float nx
property float ny
property float nz
property float s
property float t
element face 124
property list uchar uint vertex_indices
end_header
0.000000 1.000000 -1.000000 0.098017 0.995185 0.000000 1.000000 0.500000
0.000000 1.000000 1.000000 0.098017 0.995185 0.000000 1.000000 1.000000
0.195090 0.980785 1.000000 0.098017 0.995185 0.000000 0.968750 1.000000
0.195090 0.980785 -1.000000 0.098017 0.995185 -0.000000 0.968750 0.500000
0.195090 0.980785 -1.000000 0.290285 0.956940 0.000000 0.968750 0.500000
0.195090 0.980785 1.000000 0.290285 0.956940 0.000000 0.968750 1.000000
0.382683 0.923880 1.000000 0.290285 0.956940 0.000000 0.937500 1.000000
0.382683 0.923880 -1.000000 0.290285 0.956940 -0.000000 0.937500 0.500000
0.382683 0.923880 -1.000000 0.471397 0.881921 0.000000 0.937500 0.500000
0.382683 0.923880 1.000000 0.471397 0.881921 0.000000 0.937500 1.000000
0.555570 0.831470 1.000000 0.471397 0.881921 0.000000 0.906250 1.000000
0.555570 0.831470 -1.000000 0.471397 0.881921 -0.000000 0.906250 0.500000
0.555570 0.831470 -1.000000 0.634393 0.773010 0.000000 0.906250 0.500000
0.555570 0.831470 1.000000 0.634393 0.773010 0.000000 0.906250 1.000000
0.707107 0.707107 1.000000 0.634393 0.773010 0.000000 0.875000 1.000000
0.707107 0.707107 -1.000000 0.634393 0.773010 -0.000000 0.875000 0.500000
0.707107 0.707107 -1.000000 0.773010 0.634393 0.000000 0.875000 0.500000
0.707107 0.707107 1.000000 0.773010 0.634393 0.000000 0.875000 1.000000
0.831470 0.555570 1.000000 0.773010 0.634393 0.000000 0.843750 1.000000
0.831470 0.555570 -1.000000 0.773010 0.634393 -0.000000 0.843750 0.500000
0.831470 0.555570 -1.000000 0.881921 0.471397 0.000000 0.843750 0.500000
0.831470 0.555570 1.000000 0.881921 0.471397 0.000000 0.843750 1.000000
0.923880 0.382683 1.000000 0.881921 0.471397 0.000000 0.812500 1.000000
0.923880 0.382683 -1.000000 0.881921 0.471397 -0.000000 0.812500 0.500000
0.923880 0.382683 -1.000000 0.956940 0.290285 0.000000 0.812500 0.500000
0.923880 0.382683 1.000000 0.956940 0.290285 0.000000 0.812500 1.000000
0.980785 0.195090 1.000000 0.956940 0.290285 0.000000 0.781250 1.000000
0.980785 0.195090 -1.000000 0.956940 0.290285 -0.000000 0.781250 0.500000
0.980785 0.195090 -1.000000 0.995185 0.098017 0.000000 0.781250 0.500000
0.980785 0.195090 1.000000 0.995185 0.098017 0.000000 0.781250 1.000000
1.000000 0.000000 1.000000 0.995185 0.098017 0.000000 0.750000 1.000000
1.000000 0.000000 -1.000000 0.995185 0.098017 -0.000000 0.750000 0.500000
1.000000 0.000000 -1.000000 0.995185 -0.098017 0.000000 0.750000 0.500000
1.000000 0.000000 1.000000 0.995185 -0.098017 0.000000 0.750000 1.000000
0.980785 -0.195090 1.000000 0.995185 -0.098017 0.000000 0.718750 1.000000
0.980785 -0.195090 -1.000000 0.995185 -0.098017 0.000000 0.718750 0.500000
0.980785 -0.195090 -1.000000 0.956940 -0.290285 0.000000 0.718750 0.500000
0.980785 -0.195090 1.000000 0.956940 -0.290285 0.000000 0.718750 1.000000
0.923880 -0.382683 1.000000 0.956940 -0.290285 0.000000 0.687500 1.000000
0.923880 -0.382683 -1.000000 0.956940 -0.290285 0.000000 0.687500 0.500000
0.923880 -0.382683 -1.000000 0.881921 -0.471396 0.000000 0.687500 0.500000
0.923880 -0.382683 1.000000 0.881921 -0.471396 0.000000 0.687500 1.000000
0.831470 -0.555570 1.000000 0.881921 -0.471396 0.000000 0.656250 1.000000
0.831470 -0.555570 -1.000000 0.881921 -0.471396 0.000000 0.656250 0.500000
0.831470 -0.555570 -1.000000 0.773010 -0.634393 0.000000 0.656250 0.500000
0.831470 -0.555570 1.000000 0.773010 -0.634393 0.000000 0.656250 1.000000
0.707107 -0.707107 1.000000 0.773010 -0.634393 0.000000 0.625000 1.000000
0.707107 -0.707107 -1.000000 0.773010 -0.634393 0.000000 0.625000 0.500000
0.707107 -0.707107 -1.000000 0.634393 -0.773010 0.000000 0.625000 0.500000
0.707107 -0.707107 1.000000 0.634393 -0.773010 0.000000 0.625000 1.000000
0.555570 -0.831470 1.000000 0.634393 -0.773010 0.000000 0.593750 1.000000
0.555570 -0.831470 -1.000000 0.634393 -0.773010 0.000000 0.593750 0.500000
0.555570 -0.831470 -1.000000 0.471397 -0.881921 0.000000 0.593750 0.500000
0.555570 -0.831470 1.000000 0.471397 -0.881921 0.000000 0.593750 1.000000
0.382683 -0.923880 1.000000 0.471397 -0.881921 0.000000 0.562500 1.000000
0.382683 -0.923880 -1.000000 0.471397 -0.881921 0.000000 0.562500 0.500000
0.382683 -0.923880 -1.000000 0.290284 -0.956940 0.000000 0.562500 0.500000
0.382683 -0.923880 1.000000 0.290284 -0.956940 0.000000 0.562500 1.000000
0.195090 -0.980785 1.000000 0.290284 -0.956940 0.000000 0.531250 1.000000
0.195090 -0.980785 -1.000000 0.290284 -0.956940 0.000000 0.531250 0.500000
0.195090 -0.980785 -1.000000 0.098017 -0.995185 0.000000 0.531250 0.500000
0.195090 -0.980785 1.000000 0.098017 -0.995185 0.000000 0.531250 1.000000
-0.000000 -1.000000 1.000000 0.098017 -0.995185 0.000000 0.500000 1.000000
-0.000000 -1.000000 -1.000000 0.098017 -0.995185 0.000000 0.500000 0.500000
-0.000000 -1.000000 -1.000000 -0.098018 -0.995185 -0.000000 0.500000 0.500000
-0.000000 -1.000000 1.000000 -0.098018 -0.995185 -0.000000 0.500000 1.000000
-0.195091 -0.980785 1.000000 -0.098018 -0.995185 -0.000000 0.468750 1.000000
-0.195091 -0.980785 -1.000000 -0.098018 -0.995185 0.000000 0.468750 0.500000
-0.195091 -0.980785 -1.000000 -0.290285 -0.956940 -0.000000 0.468750 0.500000
-0.195091 -0.980785 1.000000 -0.290285 -0.956940 -0.000000 0.468750 1.000000
-0.382684 -0.923879 1.000000 -0.290285 -0.956940 -0.000000 0.437500 1.000000
-0.382684 -0.923879 -1.000000 -0.290285 -0.956940 0.000000 0.437500 0.500000
-0.382684 -0.923879 -1.000000 -0.471397 -0.881921 -0.000000 0.437500 0.500000
-0.382684 -0.923879 1.000000 -0.471397 -0.881921 -0.000000 0.437500 1.000000
-0.555571 -0.831469 1.000000 -0.471397 -0.881921 -0.000000 0.406250 1.000000
-0.555571 -0.831469 -1.000000 -0.471397 -0.881921 0.000000 0.406250 0.500000
-0.555571 -0.831469 -1.000000 -0.634394 -0.773010 -0.000000 0.406250 0.500000
-0.555571 -0.831469 1.000000 -0.634394 -0.773010 -0.000000 0.406250 1.000000
-0.707107 -0.707106 1.000000 -0.634394 -0.773010 -0.000000 0.375000 1.000000
-0.707107 -0.707106 -1.000000 -0.634394 -0.773010 0.000000 0.375000 0.500000
-0.707107 -0.707106 -1.000000 -0.773011 -0.634393 -0.000000 0.375000 0.500000
-0.707107 -0.707106 1.000000 -0.773011 -0.634393 -0.000000 0.375000 1.000000
-0.831470 -0.555570 1.000000 -0.773011 -0.634393 -0.000000 0.343750 1.000000
-0.831470 -0.555570 -1.000000 -0.773011 -0.634393 0.000000 0.343750 0.500000
-0.831470 -0.555570 -1.000000 -0.881922 -0.471396 -0.000000 0.343750 0.500000
-0.831470 -0.555570 1.000000 -0.881922 -0.471396 -0.000000 0.343750 1.000000
-0.923880 -0.382683 1.000000 -0.881922 -0.471396 -0.000000 0.312500 1.000000
-0.923880 -0.382683 -1.000000 -0.881922 -0.471396 0.000000 0.312500 0.500000
-0.923880 -0.382683 -1.000000 -0.956941 -0.290284 -0.000000 0.312500 0.500000
-0.923880 -0.382683 1.000000 -0.956941 -0.290284 -0.000000 0.312500 1.000000
-0.980785 -0.195089 1.000000 -0.956941 -0.290284 -0.000000 0.281250 1.000000
-0.980785 -0.195089 -1.000000 -0.956941 -0.290284 0.000000 0.281250 0.500000
-0.980785 -0.195089 -1.000000 -0.995185 -0.098016 -0.000000 0.281250 0.500000
-0.980785 -0.195089 1.000000 -0.995185 -0.098016 -0.000000 0.281250 1.000000
-1.000000 0.000001 1.000000 -0.995185 -0.098016 -0.000000 0.250000 1.000000
-1.000000 0.000001 -1.000000 -0.995185 -0.098016 0.000000 0.250000 0.500000
-1.000000 0.000001 -1.000000 -0.995185 0.098018 0.000000 0.250000 0.500000
-1.000000 0.000001 1.000000 -0.995185 0.098018 0.000000 0.250000 1.000000
-0.980785 0.195091 1.000000 -0.995185 0.098018 0.000000 0.218750 1.000000
-0.980785 0.195091 -1.000000 -0.995185 0.098018 0.000000 0.218750 0.500000
-0.980785 0.195091 -1.000000 -0.956940 0.290286 0.000000 0.218750 0.500000
-0.980785 0.195091 1.000000 -0.956940 0.290286 0.000000 0.218750 1.000000
-0.923879 0.382684 1.000000 -0.956940 0.290286 0.000000 0.187500 1.000000
-0.923879 0.382684 -1.000000 -0.956940 0.290286 0.000000 0.187500 0.500000
-0.923879 0.382684 -1.000000 -0.881921 0.471398 0.000000 0.187500 0.500000
-0.923879 0.382684 1.000000 -0.881921 0.471398 0.000000 0.187500 1.000000
-0.831469 0.555571 1.000000 -0.881921 0.471398 0.000000 0.156250 1.000000
-0.831469 0.555571 -1.000000 -0.881921 0.471398 0.000000 0.156250 0.500000
-0.831469 0.555571 -1.000000 -0.773010 0.634394 0.000000 0.156250 0.500000
-0.831469 0.555571 1.000000 -0.773010 0.634394 0.000000 0.156250 1.000000
-0.707106 0.707108 1.000000 -0.773010 0.634394 0.000000 0.125000 1.000000
-0.707106 0.707108 -1.000000 -0.773010 0.634394 0.000000 0.125000 0.500000
-0.707106 0.707108 -1.000000 -0.634392 0.773011 0.000000 0.125000 0.500000
-0.707106 0.707108 1.000000 -0.634392 0.773011 0.000000 0.125000 1.000000
-0.555569 0.831470 1.000000 -0.634392 0.773011 0.000000 0.093750 1.000000
-0.555569 0.831470 -1.000000 -0.634392 0.773011 0.000000 0.093750 0.500000
-0.555569 0.831470 -1.000000 -0.471395 0.881922 0.000000 0.093750 0.500000
-0.555569 0.831470 1.000000 -0.471395 0.881922 0.000000 0.093750 1.000000
-0.382682 0.923880 1.000000 -0.471395 0.881922 0.000000 0.062500 1.000000
-0.382682 0.923880 -1.000000 -0.471395 0.881922 0.000000 0.062500 0.500000
0.382683 0.923880 1.000000 0.000000 0.000000 1.000000 0.341844 0.471731
0.195090 0.980785 1.000000 0.000000 0.000000 1.000000 0.296822 0.485388
0.000000 1.000000 1.000000 0.000000 0.000000 1.000000 0.250000 0.490000
-0.195089 0.980786 1.000000 0.000000 0.000000 1.000000 0.203179 0.485389
-0.382682 0.923880 1.000000 0.000000 0.000000 1.000000 0.158156 0.471731
-0.555569 0.831470 1.000000 0.000000 0.000000 1.000000 0.116663 0.449553
-0.707106 0.707108 1.000000 0.000000 0.000000 1.000000 0.080295 0.419706
-0.831469 0.555571 1.000000 0.000000 0.000000 1.000000 0.050447 0.383337
-0.923879 0.382684 1.000000 0.000000 0.000000 1.000000 0.028269 0.341844
-0.980785 0.195091 1.000000 0.000000 0.000000 1.000000 0.014612 0.296822
-1.000000 0.000001 1.000000 0.000000 0.000000 1.000000 0.010000 0.250000
-0.980785 -0.195089 1.000000 0.000000 0.000000 1.000000 0.014611 0.203179
-0.923880 -0.382683 1.000000 0.000000 0.000000 1.000000 0.028269 0.158156
-0.831470 -0.555570 1.000000 0.000000 0.000000 1.000000 0.050447 0.116663
-0.707107 -0.707106 1.000000 0.000000 0.000000 1.000000 0.080294 0.080294
-0.555571 -0.831469 1.000000 0.000000 0.000000 1.000000 0.116663 0.050447
-0.382684 -0.923879 1.000000 0.000000 0.000000 1.000000 0.158156 0.028269
-0.195091 -0.980785 1.000000 0.000000 0.000000 1.000000 0.203178 0.014612
-0.000000 -1.000000 1.000000 0.000000 0.000000 1.000000 0.250000 0.010000
0.195090 -0.980785 1.000000 0.000000 0.000000 1.000000 0.296822 0.014612
0.382683 -0.923880 1.000000 0.000000 0.000000 1.000000 0.341844 0.028269
0.555570 -0.831470 1.000000 0.000000 0.000000 1.000000 0.383337 0.050447
0.707107 -0.707107 1.000000 0.000000 0.000000 1.000000 0.419706 0.080294
0.831470 -0.555570 1.000000 0.000000 0.000000 1.000000 0.449553 0.116663
0.923880 -0.382683 1.000000 0.000000 0.000000 1.000000 0.471731 0.158156
0.980785 -0.195090 1.000000 0.000000 0.000000 1.000000 0.485388 0.203178
1.000000 0.000000 1.000000 0.000000 0.000000 1.000000 0.490000 0.250000
0.980785 0.195090 1.000000 0.000000 0.000000 1.000000 0.485388 0.296822
0.923880 0.382683 1.000000 0.000000 0.000000 1.000000 0.471731 0.341844
0.831470 0.555570 1.000000 0.000000 0.000000 1.000000 0.449553 0.383337
0.707107 0.707107 1.000000 0.000000 0.000000 1.000000 0.419706 0.419706
0.555570 0.831470 1.000000 0.000000 0.000000 1.000000 0.383337 0.449553
-0.382682 0.923880 -1.000000 -0.290283 0.956941 0.000000 0.062500 0.500000
-0.382682 0.923880 1.000000 -0.290283 0.956941 0.000000 0.062500 1.000000
-0.195089 0.980786 1.000000 -0.290283 0.956941 0.000000 0.031250 1.000000
-0.195089 0.980786 -1.000000 -0.290283 0.956941 0.000000 0.031250 0.500000
-0.195089 0.980786 -1.000000 -0.098017 0.995185 0.000000 0.031250 0.500000
-0.195089 0.980786 1.000000 -0.098017 0.995185 0.000000 0.031250 1.000000
0.000000 1.000000 1.000000 -0.098017 0.995185 0.000000 0.000000 1.000000
0.000000 1.000000 -1.000000 -0.098017 0.995185 0.000000 0.000000 0.500000
-0.195089 0.980786 -1.000000 -0.000000 0.000000 -1.000000 0.703179 0.485389
0.000000 1.000000 -1.000000 -0.000000 0.000000 -1.000000 0.750000 0.490000
0.195090 0.980785 -1.000000 -0.000000 0.000000 -1.000000 0.796822 0.485388
0.382683 0.923880 -1.000000 0.000000 0.000000 -1.000000 0.841844 0.471731
0.555570 0.831470 -1.000000 0.000000 0.000000 -1.000000 0.883337 0.449553
0.707107 0.707107 -1.000000 0.000000 0.000000 -1.000000 0.919706 0.419706
0.831470 0.555570 -1.000000 0.000000 0.000000 -1.000000 0.949553 0.383337
0.923880 0.382683 -1.000000 0.000000 0.000000 -1.000000 0.971731 0.341844
0.980785 0.195090 -1.000000 0.000000 0.000000 -1.000000 0.985388 0.296822
1.000000 0.000000 -1.000000 0.000000 0.000000 -1.000000 0.990000 0.250000
0.980785 -0.195090 -1.000000 0.000000 0.000000 -1.000000 0.985388 0.203178
0.923880 -0.382683 -1.000000 0.000000 0.000000 -1.000000 0.971731 0.158156
0.831470 -0.555570 -1.000000 0.000000 0.000000 -1.000000 0.949553 0.116663
0.707107 -0.707107 -1.000000 0.000000 0.000000 -1.000000 0.919706 0.080294
0.555570 -0.831470 -1.000000 0.000000 0.000000 -1.000000 0.883337 0.050447
0.382683 -0.923880 -1.000000 0.000000 0.000000 -1.000000 0.841844 0.028269
0.195090 -0.980785 -1.000000 0.000000 0.000000 -1.000000 0.796822 0.014612
-0.000000 -1.000000 -1.000000 0.000000 0.000000 -1.000000 0.750000 0.010000
-0.195091 -0.980785 -1.000000 0.000000 0.000000 -1.000000 0.703178 0.014612
-0.382684 -0.923879 -1.000000 0.000000 0.000000 -1.000000 0.658156 0.028269
-0.555571 -0.831469 -1.000000 0.000000 0.000000 -1.000000 0.616663 0.050447
-0.707107 -0.707106 -1.000000 0.000000 0.000000 -1.000000 0.580294 0.080294
-0.831470 -0.555570 -1.000000 0.000000 0.000000 -1.000000 0.550447 0.116663
-0.923880 -0.382683 -1.000000 0.000000 0.000000 -1.000000 0.528269 0.158156
-0.980785 -0.195089 -1.000000 0.000000 0.000000 -1.000000 0.514611 0.203179
-1.000000 0.000001 -1.000000 0.000000 -0.000000 -1.000000 0.510000 0.250000
-0.980785 0.195091 -1.000000 0.000000 -0.000000 -1.000000 0.514612 0.296822
-0.923879 0.382684 -1.000000 0.000000 0.000000 -1.000000 0.528269 0.341844
-0.831469 0.555571 -1.000000 0.000000 0.000000 -1.000000 0.550447 0.383337
-0.707106 0.707108 -1.000000 0.000000 0.000000 -1.000000 0.580295 0.419706
-0.555569 0.831470 -1.000000 0.000000 0.000000 -1.000000 0.616663 0.449553
-0.382682 0.923880 -1.000000 0.000000 0.000000 -1.000000 0.658156 0.471731
3 0 1 2
3 0 2 3
3 4 5 6
3 4 6 7
3 8 9 10
3 8 10 11
3 12 13 14
3 12 14 15
3 16 17 18
3 16 18 19
3 20 21 22
3 20 22 23
3 24 25 26
3 24 26 27
3 28 29 30
3 28 30 31
3 32 33 34
3 32 34 35
3 36 37 38
3 36 38 39
3 40 41 42
3 40 42 43
3 44 45 46
3 44 46 47
3 48 49 50
3 48 50 51
3 52 53 54
3 52 54 55
3 56 57 58
3 56 58 59
3 60 61 62
3 60 62 63
3 64 65 66
3 64 66 67
3 68 69 70
3 68 70 71
3 72 73 74
3 72 74 75
3 76 77 78
3 76 78 79
3 80 81 82
3 80 82 83
3 84 85 86
3 84 86 87
3 88 89 90
3 88 90 91
3 92 93 94
3 92 94 95
3 96 97 98
3 96 98 99
3 100 101 102
3 100 102 103
3 104 105 106
3 104 106 107
3 108 109 110
3 108 110 111
3 112 113 114
3 112 114 115
3 116 117 118
3 116 118 119
3 120 121 122
3 122 123 124
3 124 125 126
3 126 127 128
3 128 129 130
3 130 131 132
3 132 133 134
3 134 135 136
3 136 137 138
3 138 139 140
3 140 141 142
3 142 143 144
3 144 145 146
3 146 147 148
3 148 149 150
3 150 151 120
3 120 122 124
3 124 126 128
3 128 130 132
3 132 134 136
3 136 138 140
3 140 142 144
3 144 146 148
3 148 150 120
3 120 124 128
3 128 132 136
3 136 140 144
3 144 148 120
3 120 128 136
3 136 144 120
3 152 153 154
3 152 154 155
3 156 157 158
3 156 158 159
3 160 161 162
3 162 163 164
3 164 165 166
3 166 167 168
3 168 169 170
3 170 171 172
3 172 173 174
3 174 175 176
3 176 177 178
3 178 179 180
3 180 181 182
3 182 183 184
3 184 185 186
3 186 187 188
3 188 189 190
3 190 191 160
3 160 162 164
3 164 166 168
3 168 170 172
3 172 174 176
3 176 178 180
3 180 182 184
3 184 186 188
3 188 190 160
3 160 164 168
3 168 172 176
3 176 180 184
3 184 188 160
3 160 168 176
3 176 184 160
