ply
format ascii 1.0
comment Created by Blender 2.80 (sub 75) - www.blender.org, source file: ''
element vertex 130
property float x
property float y
property float z
property float nx
property float ny
property float nz
property float s
property float t
element face 124
property list uchar uint vertex_indices
end_header
0.000000 1.000000 -2.383134 0.000000 0.727866 -0.685690 1.000000 0.500000
0.000000 1.000000 2.383134 0.000000 0.727866 0.685690 1.000000 1.000000
0.195090 0.980785 2.383134 0.142003 0.713889 0.685690 0.968750 1.000000
0.195090 0.980785 -2.383134 0.142003 0.713889 -0.685690 0.968750 0.500000
0.382683 0.923880 2.383134 0.278542 0.672475 0.685690 0.937500 1.000000
0.382683 0.923880 -2.383134 0.278542 0.672475 -0.685690 0.937500 0.500000
0.555570 0.831470 2.383134 0.404370 0.605213 0.685690 0.906250 1.000000
0.555570 0.831470 -2.383134 0.404370 0.605213 -0.685690 0.906250 0.500000
0.707107 0.707107 2.383134 0.514664 0.514664 0.685690 0.875000 1.000000
0.707107 0.707107 -2.383134 0.514664 0.514664 -0.685690 0.875000 0.500000
0.831470 0.555570 2.383134 0.605213 0.404370 0.685690 0.843750 1.000000
0.831470 0.555570 -2.383134 0.605213 0.404370 -0.685690 0.843750 0.500000
0.923880 0.382683 2.383134 0.672475 0.278542 0.685690 0.812500 1.000000
0.923880 0.382683 -2.383134 0.672475 0.278542 -0.685690 0.812500 0.500000
0.980785 0.195090 2.383134 0.713889 0.142003 0.685690 0.781250 1.000000
0.980785 0.195090 -2.383134 0.713889 0.142003 -0.685690 0.781250 0.500000
1.000000 0.000000 2.383134 0.727866 0.000000 0.685690 0.750000 1.000000
1.000000 0.000000 -2.383134 0.727866 0.000000 -0.685690 0.750000 0.500000
0.980785 -0.195090 2.383134 0.713889 -0.142003 0.685690 0.718750 1.000000
0.980785 -0.195090 -2.383134 0.713889 -0.142003 -0.685690 0.718750 0.500000
0.923880 -0.382683 2.383134 0.672475 -0.278542 0.685690 0.687500 1.000000
0.923880 -0.382683 -2.383134 0.672475 -0.278542 -0.685690 0.687500 0.500000
0.831470 -0.555570 2.383134 0.605213 -0.404370 0.685690 0.656250 1.000000
0.831470 -0.555570 -2.383134 0.605213 -0.404370 -0.685690 0.656250 0.500000
0.707107 -0.707107 2.383134 0.514664 -0.514664 0.685690 0.625000 1.000000
0.707107 -0.707107 -2.383134 0.514664 -0.514664 -0.685690 0.625000 0.500000
0.555570 -0.831470 2.383134 0.404370 -0.605213 0.685690 0.593750 1.000000
0.555570 -0.831470 -2.383134 0.404370 -0.605213 -0.685690 0.593750 0.500000
0.382683 -0.923880 2.383134 0.278542 -0.672475 0.685690 0.562500 1.000000
0.382683 -0.923880 -2.383134 0.278542 -0.672475 -0.685690 0.562500 0.500000
0.195090 -0.980785 2.383134 0.142003 -0.713889 0.685690 0.531250 1.000000
0.195090 -0.980785 -2.383134 0.142003 -0.713889 -0.685690 0.531250 0.500000
-0.000000 -1.000000 2.383134 0.000000 -0.727866 0.685690 0.500000 1.000000
-0.000000 -1.000000 -2.383134 0.000000 -0.727866 -0.685690 0.500000 0.500000
-0.195091 -0.980785 2.383134 -0.142003 -0.713889 0.685690 0.468750 1.000000
-0.195091 -0.980785 -2.383134 -0.142003 -0.713889 -0.685690 0.468750 0.500000
-0.382684 -0.923879 2.383134 -0.278542 -0.672475 0.685690 0.437500 1.000000
-0.382684 -0.923879 -2.383134 -0.278542 -0.672475 -0.685690 0.437500 0.500000
-0.555571 -0.831469 2.383134 -0.404370 -0.605213 0.685690 0.406250 1.000000
-0.555571 -0.831469 -2.383134 -0.404370 -0.605213 -0.685690 0.406250 0.500000
-0.707107 -0.707106 2.383134 -0.514664 -0.514664 0.685690 0.375000 1.000000
-0.707107 -0.707106 -2.383134 -0.514664 -0.514664 -0.685690 0.375000 0.500000
-0.831470 -0.555570 2.383134 -0.605213 -0.404370 0.685690 0.343750 1.000000
-0.831470 -0.555570 -2.383134 -0.605213 -0.404370 -0.685690 0.343750 0.500000
-0.923880 -0.382683 2.383134 -0.672475 -0.278542 0.685690 0.312500 1.000000
-0.923880 -0.382683 -2.383134 -0.672475 -0.278542 -0.685690 0.312500 0.500000
-0.980785 -0.195089 2.383134 -0.713889 -0.142003 0.685690 0.281250 1.000000
-0.980785 -0.195089 -2.383134 -0.713889 -0.142003 -0.685690 0.281250 0.500000
-1.000000 0.000001 2.383134 -0.727866 0.000000 0.685690 0.250000 1.000000
-1.000000 0.000001 -2.383134 -0.727866 0.000000 -0.685690 0.250000 0.500000
-0.980785 0.195091 2.383134 -0.713889 0.142003 0.685690 0.218750 1.000000
-0.980785 0.195091 -2.383134 -0.713889 0.142003 -0.685690 0.218750 0.500000
-0.923879 0.382684 2.383134 -0.672475 0.278542 0.685690 0.187500 1.000000
-0.923879 0.382684 -2.383134 -0.672475 0.278542 -0.685690 0.187500 0.500000
-0.831469 0.555571 2.383134 -0.605213 0.404370 0.685690 0.156250 1.000000
-0.831469 0.555571 -2.383134 -0.605213 0.404370 -0.685690 0.156250 0.500000
-0.707106 0.707108 2.383134 -0.514664 0.514695 0.685690 0.125000 1.000000
-0.707106 0.707108 -2.383134 -0.514664 0.514695 -0.685690 0.125000 0.500000
-0.555569 0.831470 2.383134 -0.404370 0.605213 0.685690 0.093750 1.000000
-0.555569 0.831470 -2.383134 -0.404370 0.605213 -0.685690 0.093750 0.500000
-0.382682 0.923880 2.383134 -0.278542 0.672475 0.685690 0.062500 1.000000
-0.382682 0.923880 -2.383134 -0.278542 0.672475 -0.685690 0.062500 0.500000
0.382683 0.923880 2.383134 0.000000 0.000000 1.000000 0.341844 0.471731
0.195090 0.980785 2.383134 0.000000 0.000000 1.000000 0.296822 0.485388
0.000000 1.000000 2.383134 0.000000 0.000000 1.000000 0.250000 0.490000
-0.195089 0.980786 2.383134 0.000000 0.000000 1.000000 0.203179 0.485389
-0.382682 0.923880 2.383134 0.000000 0.000000 1.000000 0.158156 0.471731
-0.555569 0.831470 2.383134 0.000000 0.000000 1.000000 0.116663 0.449553
-0.707106 0.707108 2.383134 0.000000 0.000000 1.000000 0.080295 0.419706
-0.831469 0.555571 2.383134 0.000000 0.000000 1.000000 0.050447 0.383337
-0.923879 0.382684 2.383134 0.000000 0.000000 1.000000 0.028269 0.341844
-0.980785 0.195091 2.383134 0.000000 0.000000 1.000000 0.014612 0.296822
-1.000000 0.000001 2.383134 0.000000 0.000000 1.000000 0.010000 0.250000
-0.980785 -0.195089 2.383134 0.000000 0.000000 1.000000 0.014611 0.203179
-0.923880 -0.382683 2.383134 0.000000 0.000000 1.000000 0.028269 0.158156
-0.831470 -0.555570 2.383134 0.000000 0.000000 1.000000 0.050447 0.116663
-0.707107 -0.707106 2.383134 0.000000 0.000000 1.000000 0.080294 0.080294
-0.555571 -0.831469 2.383134 0.000000 0.000000 1.000000 0.116663 0.050447
-0.382684 -0.923879 2.383134 0.000000 0.000000 1.000000 0.158156 0.028269
-0.195091 -0.980785 2.383134 0.000000 0.000000 1.000000 0.203178 0.014612
-0.000000 -1.000000 2.383134 0.000000 0.000000 1.000000 0.250000 0.010000
0.195090 -0.980785 2.383134 0.000000 0.000000 1.000000 0.296822 0.014612
0.382683 -0.923880 2.383134 0.000000 0.000000 1.000000 0.341844 0.028269
0.555570 -0.831470 2.383134 0.000000 0.000000 1.000000 0.383337 0.050447
0.707107 -0.707107 2.383134 0.000000 0.000000 1.000000 0.419706 0.080294
0.831470 -0.555570 2.383134 0.000000 0.000000 1.000000 0.449553 0.116663
0.923880 -0.382683 2.383134 0.000000 0.000000 1.000000 0.471731 0.158156
0.980785 -0.195090 2.383134 0.000000 0.000000 1.000000 0.485388 0.203178
1.000000 0.000000 2.383134 0.000000 0.000000 1.000000 0.490000 0.250000
0.980785 0.195090 2.383134 0.000000 0.000000 1.000000 0.485388 0.296822
0.923880 0.382683 2.383134 0.000000 0.000000 1.000000 0.471731 0.341844
0.831470 0.555570 2.383134 0.000000 0.000000 1.000000 0.449553 0.383337
0.707107 0.707107 2.383134 0.000000 0.000000 1.000000 0.419706 0.419706
0.555570 0.831470 2.383134 0.000000 0.000000 1.000000 0.383337 0.449553
-0.195089 0.980786 2.383134 -0.142003 0.713889 0.685690 0.031250 1.000000
-0.195089 0.980786 -2.383134 -0.142003 0.713889 -0.685690 0.031250 0.500000
0.000000 1.000000 2.383134 0.000000 0.727866 0.685690 0.000000 1.000000
0.000000 1.000000 -2.383134 0.000000 0.727866 -0.685690 0.000000 0.500000
-0.195089 0.980786 -2.383134 -0.000000 0.000000 -1.000000 0.703179 0.485389
0.000000 1.000000 -2.383134 -0.000000 0.000000 -1.000000 0.750000 0.490000
0.195090 0.980785 -2.383134 -0.000000 0.000000 -1.000000 0.796822 0.485388
0.382683 0.923880 -2.383134 0.000000 0.000000 -1.000000 0.841844 0.471731
0.555570 0.831470 -2.383134 0.000000 0.000000 -1.000000 0.883337 0.449553
0.707107 0.707107 -2.383134 0.000000 0.000000 -1.000000 0.919706 0.419706
0.831470 0.555570 -2.383134 0.000000 0.000000 -1.000000 0.949553 0.383337
0.923880 0.382683 -2.383134 0.000000 0.000000 -1.000000 0.971731 0.341844
0.980785 0.195090 -2.383134 0.000000 0.000000 -1.000000 0.985388 0.296822
1.000000 0.000000 -2.383134 0.000000 0.000000 -1.000000 0.990000 0.250000
0.980785 -0.195090 -2.383134 0.000000 0.000000 -1.000000 0.985388 0.203178
0.923880 -0.382683 -2.383134 0.000000 0.000000 -1.000000 0.971731 0.158156
0.831470 -0.555570 -2.383134 0.000000 0.000000 -1.000000 0.949553 0.116663
0.707107 -0.707107 -2.383134 0.000000 0.000000 -1.000000 0.919706 0.080294
0.555570 -0.831470 -2.383134 0.000000 0.000000 -1.000000 0.883337 0.050447
0.382683 -0.923880 -2.383134 0.000000 0.000000 -1.000000 0.841844 0.028269
0.195090 -0.980785 -2.383134 0.000000 0.000000 -1.000000 0.796822 0.014612
-0.000000 -1.000000 -2.383134 0.000000 0.000000 -1.000000 0.750000 0.010000
-0.195091 -0.980785 -2.383134 0.000000 0.000000 -1.000000 0.703178 0.014612
-0.382684 -0.923879 -2.383134 0.000000 0.000000 -1.000000 0.658156 0.028269
-0.555571 -0.831469 -2.383134 0.000000 0.000000 -1.000000 0.616663 0.050447
-0.707107 -0.707106 -2.383134 0.000000 0.000000 -1.000000 0.580294 0.080294
-0.831470 -0.555570 -2.383134 0.000000 0.000000 -1.000000 0.550447 0.116663
-0.923880 -0.382683 -2.383134 0.000000 0.000000 -1.000000 0.528269 0.158156
-0.980785 -0.195089 -2.383134 0.000000 0.000000 -1.000000 0.514611 0.203179
-1.000000 0.000001 -2.383134 0.000000 -0.000000 -1.000000 0.510000 0.250000
-0.980785 0.195091 -2.383134 0.000000 -0.000000 -1.000000 0.514612 0.296822
-0.923879 0.382684 -2.383134 0.000000 0.000000 -1.000000 0.528269 0.341844
-0.831469 0.555571 -2.383134 0.000000 0.000000 -1.000000 0.550447 0.383337
-0.707106 0.707108 -2.383134 0.000000 0.000000 -1.000000 0.580295 0.419706
-0.555569 0.831470 -2.383134 0.000000 0.000000 -1.000000 0.616663 0.449553
-0.382682 0.923880 -2.383134 0.000000 0.000000 -1.000000 0.658156 0.471731
3 0 1 2
3 0 2 3
3 3 2 4
3 3 4 5
3 5 4 6
3 5 6 7
3 7 6 8
3 7 8 9
3 9 8 10
3 9 10 11
3 11 10 12
3 11 12 13
3 13 12 14
3 13 14 15
3 15 14 16
3 15 16 17
3 17 16 18
3 17 18 19
3 19 18 20
3 19 20 21
3 21 20 22
3 21 22 23
3 23 22 24
3 23 24 25
3 25 24 26
3 25 26 27
3 27 26 28
3 27 28 29
3 29 28 30
3 29 30 31
3 31 30 32
3 31 32 33
3 33 32 34
3 33 34 35
3 35 34 36
3 35 36 37
3 37 36 38
3 37 38 39
3 39 38 40
3 39 40 41
3 41 40 42
3 41 42 43
3 43 42 44
3 43 44 45
3 45 44 46
3 45 46 47
3 47 46 48
3 47 48 49
3 49 48 50
3 49 50 51
3 51 50 52
3 51 52 53
3 53 52 54
3 53 54 55
3 55 54 56
3 55 56 57
3 57 56 58
3 57 58 59
3 59 58 60
3 59 60 61
3 62 63 64
3 64 65 66
3 66 67 68
3 68 69 70
3 70 71 72
3 72 73 74
3 74 75 76
3 76 77 78
3 78 79 80
3 80 81 82
3 82 83 84
3 84 85 86
3 86 87 88
3 88 89 90
3 90 91 92
3 92 93 62
3 62 64 66
3 66 68 70
3 70 72 74
3 74 76 78
3 78 80 82
3 82 84 86
3 86 88 90
3 90 92 62
3 62 66 70
3 70 74 78
3 78 82 86
3 86 90 62
3 62 70 78
3 78 86 62
3 61 60 94
3 61 94 95
3 95 94 96
3 95 96 97
3 98 99 100
3 100 101 102
3 102 103 104
3 104 105 106
3 106 107 108
3 108 109 110
3 110 111 112
3 112 113 114
3 114 115 116
3 116 117 118
3 118 119 120
3 120 121 122
3 122 123 124
3 124 125 126
3 126 127 128
3 128 129 98
3 98 100 102
3 102 104 106
3 106 108 110
3 110 112 114
3 114 116 118
3 118 120 122
3 122 124 126
3 126 128 98
3 98 102 106
3 106 110 114
3 114 118 122
3 122 126 98
3 98 106 114
3 114 122 98
