ply
format ascii 1.0
comment Created by Blender 2.80 (sub 75) - www.blender.org, source file: ''
element vertex 32
property float x
property float y
property float z
property float nx
property float ny
property float nz
property float s
property float t
element face 30
property list uchar uint vertex_indices
end_header
0.000000 1.000000 0.000000 0.000000 0.000000 1.000000 0.000000 0.000000
-0.195090 0.980785 0.000000 0.000000 0.000000 1.000000 0.000000 0.000000
-0.382683 0.923880 0.000000 0.000000 0.000000 1.000000 0.000000 0.000000
-0.555570 0.831470 0.000000 0.000000 0.000000 1.000000 0.000000 0.000000
-0.707107 0.707107 0.000000 0.000000 0.000000 1.000000 0.000000 0.000000
-0.831470 0.555570 0.000000 0.000000 0.000000 1.000000 0.000000 0.000000
-0.923880 0.382683 0.000000 0.000000 0.000000 1.000000 0.000000 0.000000
-0.980785 0.195090 0.000000 0.000000 0.000000 1.000000 0.000000 0.000000
-1.000000 0.000000 0.000000 0.000000 0.000000 1.000000 0.000000 0.000000
-0.980785 -0.195090 0.000000 0.000000 0.000000 1.000000 0.000000 0.000000
-0.923880 -0.382683 0.000000 0.000000 0.000000 1.000000 0.000000 0.000000
-0.831470 -0.555570 0.000000 0.000000 0.000000 1.000000 0.000000 0.000000
-0.707107 -0.707107 0.000000 0.000000 0.000000 1.000000 0.000000 0.000000
-0.555570 -0.831470 0.000000 0.000000 0.000000 1.000000 0.000000 0.000000
-0.382683 -0.923880 0.000000 0.000000 0.000000 1.000000 0.000000 0.000000
-0.195090 -0.980785 0.000000 0.000000 0.000000 1.000000 0.000000 0.000000
0.000000 -1.000000 0.000000 0.000000 0.000000 1.000000 0.000000 0.000000
0.195091 -0.980785 0.000000 0.000000 0.000000 1.000000 0.000000 0.000000
0.382684 -0.923879 0.000000 0.000000 0.000000 1.000000 0.000000 0.000000
0.555571 -0.831469 0.000000 0.000000 0.000000 1.000000 0.000000 0.000000
0.707107 -0.707106 0.000000 0.000000 0.000000 1.000000 0.000000 0.000000
0.831470 -0.555570 0.000000 0.000000 0.000000 1.000000 0.000000 0.000000
0.923880 -0.382683 0.000000 0.000000 0.000000 1.000000 0.000000 0.000000
0.980785 -0.195089 0.000000 0.000000 0.000000 1.000000 0.000000 0.000000
1.000000 0.000001 0.000000 0.000000 0.000000 1.000000 0.000000 0.000000
0.980785 0.195091 0.000000 0.000000 0.000000 1.000000 0.000000 0.000000
0.923879 0.382684 0.000000 0.000000 0.000000 1.000000 0.000000 0.000000
0.831469 0.555571 0.000000 0.000000 0.000000 1.000000 0.000000 0.000000
0.707106 0.707108 0.000000 0.000000 0.000000 1.000000 0.000000 0.000000
0.555569 0.831470 0.000000 0.000000 0.000000 1.000000 0.000000 0.000000
0.382682 0.923880 0.000000 0.000000 0.000000 1.000000 0.000000 0.000000
0.195089 0.980786 0.000000 0.000000 0.000000 1.000000 0.000000 0.000000
3 0 1 2
3 2 3 4
3 4 5 6
3 6 7 8
3 8 9 10
3 10 11 12
3 12 13 14
3 14 15 16
3 16 17 18
3 18 19 20
3 20 21 22
3 22 23 24
3 24 25 26
3 26 27 28
3 28 29 30
3 30 31 0
3 0 2 4
3 4 6 8
3 8 10 12
3 12 14 16
3 16 18 20
3 20 22 24
3 24 26 28
3 28 30 0
3 0 4 8
3 8 12 16
3 16 20 24
3 24 28 0
3 0 8 16
3 16 24 0
